<?xml version="1.0"?>
<svg xmlns="http://www.w3.org/2000/svg" xmlns:xlink="http://www.w3.org/1999/xlink" version="1.1" id="Capa_1" x="0px" y="0px" viewBox="0 0 512.001 512.001" style="enable-background:new 0 0 512.001 512.001;" xml:space="preserve" width="512px" height="512px" class=""><g><g>
	<g>
		<g>
			<path d="M133.137,68.673l-17.6-26.736c-9.511,6.251-18.597,13.125-27.2,20.576l20.976,24.16     C116.851,80.156,124.809,74.143,133.137,68.673z" data-original="#000000" class="active-path" data-old_color="#cccccc" fill="#cccccc"/>
			<path d="M256.001,0.001c-38.355-0.099-76.232,8.5-110.784,25.152l13.856,28.8c30.232-14.557,63.374-22.063,96.928-21.952     c123.712,0,224,100.288,224,224s-100.288,224-224,224s-224-100.288-224-224c-0.1-34.279,7.748-68.114,22.928-98.848     l-28.704-14.144C8.866,178.139-0.11,216.816,0.001,256.001c0,141.385,114.615,256,256,256s256-114.615,256-256     S397.386,0.001,256.001,0.001z" data-original="#000000" class="active-path" data-old_color="#cccccc" fill="#cccccc"/>
			<path d="M88.113,107.681l-24-21.2c-7.518,8.531-14.467,17.548-20.8,26.992l26.576,17.84     C75.432,123.04,81.521,115.145,88.113,107.681z" data-original="#000000" class="active-path" data-old_color="#cccccc" fill="#cccccc"/>
			<path d="M240.001,144.001h-96v224h96V144.001z M208.001,336.001h-32v-160h32V336.001z" data-original="#000000" class="active-path" data-old_color="#cccccc" fill="#cccccc"/>
			<path d="M272.001,144.001v224h96v-224H272.001z M336.001,336.001h-32v-160h32V336.001z" data-original="#000000" class="active-path" data-old_color="#cccccc" fill="#cccccc"/>
		</g>
	</g>
</g></g> </svg>
